G04*
G04 #@! TF.GenerationSoftware,Altium Limited,Altium Designer,22.3.1 (43)*
G04*
G04 Layer_Color=8388736*
%FSLAX23Y23*%
%MOIN*%
G70*
G04*
G04 #@! TF.SameCoordinates,1274CE9F-09AF-47AB-B1D0-44CBEC0A274A*
G04*
G04*
G04 #@! TF.FilePolarity,Negative*
G04*
G01*
G75*
%ADD18R,0.036X0.058*%
%ADD19R,0.221X0.122*%
%ADD20R,0.133X0.097*%
%ADD21R,0.058X0.036*%
%ADD22R,0.071X0.146*%
%ADD23R,0.058X0.036*%
%ADD24R,0.118X0.102*%
G04:AMPARAMS|DCode=25|XSize=86mil|YSize=32mil|CornerRadius=7mil|HoleSize=0mil|Usage=FLASHONLY|Rotation=180.000|XOffset=0mil|YOffset=0mil|HoleType=Round|Shape=RoundedRectangle|*
%AMROUNDEDRECTD25*
21,1,0.086,0.018,0,0,180.0*
21,1,0.072,0.032,0,0,180.0*
1,1,0.014,-0.036,0.009*
1,1,0.014,0.036,0.009*
1,1,0.014,0.036,-0.009*
1,1,0.014,-0.036,-0.009*
%
%ADD25ROUNDEDRECTD25*%
%ADD26R,0.036X0.072*%
%ADD27R,0.036X0.059*%
%ADD28R,0.146X0.071*%
G04:AMPARAMS|DCode=29|XSize=260mil|YSize=331mil|CornerRadius=7mil|HoleSize=0mil|Usage=FLASHONLY|Rotation=0.000|XOffset=0mil|YOffset=0mil|HoleType=Round|Shape=RoundedRectangle|*
%AMROUNDEDRECTD29*
21,1,0.260,0.318,0,0,0.0*
21,1,0.247,0.331,0,0,0.0*
1,1,0.013,0.123,-0.159*
1,1,0.013,-0.123,-0.159*
1,1,0.013,-0.123,0.159*
1,1,0.013,0.123,0.159*
%
%ADD29ROUNDEDRECTD29*%
G04:AMPARAMS|DCode=30|XSize=47mil|YSize=171mil|CornerRadius=6mil|HoleSize=0mil|Usage=FLASHONLY|Rotation=0.000|XOffset=0mil|YOffset=0mil|HoleType=Round|Shape=RoundedRectangle|*
%AMROUNDEDRECTD30*
21,1,0.047,0.159,0,0,0.0*
21,1,0.035,0.171,0,0,0.0*
1,1,0.012,0.018,-0.080*
1,1,0.012,-0.018,-0.080*
1,1,0.012,-0.018,0.080*
1,1,0.012,0.018,0.080*
%
%ADD30ROUNDEDRECTD30*%
%ADD31O,0.126X0.087*%
%ADD32R,0.126X0.087*%
%ADD33R,0.067X0.067*%
%ADD34C,0.067*%
%ADD35R,0.067X0.067*%
%ADD36C,0.079*%
%ADD37C,0.075*%
%ADD38C,0.069*%
%ADD39R,0.069X0.069*%
%ADD40C,0.165*%
%ADD41C,0.058*%
D18*
X4594Y4355D02*
D03*
X4673D02*
D03*
X3365Y4709D02*
D03*
X3444D02*
D03*
X2225Y4704D02*
D03*
X2146D02*
D03*
X4594Y3015D02*
D03*
X4673D02*
D03*
X3266Y2075D02*
D03*
X3345D02*
D03*
X3620Y1445D02*
D03*
X3699D02*
D03*
X3287Y1560D02*
D03*
X3366D02*
D03*
X3024Y2100D02*
D03*
X2945D02*
D03*
X3341Y2245D02*
D03*
X3420D02*
D03*
X2825Y1655D02*
D03*
X2746D02*
D03*
X4673Y3565D02*
D03*
X4594D02*
D03*
D19*
X3920Y4255D02*
D03*
Y4645D02*
D03*
D20*
X3460Y4203D02*
D03*
Y4475D02*
D03*
D21*
X2693Y4721D02*
D03*
Y4642D02*
D03*
X3165Y1749D02*
D03*
Y1670D02*
D03*
Y1919D02*
D03*
Y1840D02*
D03*
X3620Y1706D02*
D03*
Y1785D02*
D03*
X3010Y1803D02*
D03*
Y1724D02*
D03*
X3620Y1845D02*
D03*
Y1924D02*
D03*
X3010Y1860D02*
D03*
Y1939D02*
D03*
D22*
X2474Y4665D02*
D03*
Y4445D02*
D03*
X4350Y4665D02*
D03*
Y4445D02*
D03*
D23*
X2219Y4490D02*
D03*
Y4411D02*
D03*
X4667Y2820D02*
D03*
Y2741D02*
D03*
Y3360D02*
D03*
Y3281D02*
D03*
Y4165D02*
D03*
Y4086D02*
D03*
D24*
X1595Y4370D02*
D03*
X1835D02*
D03*
Y3921D02*
D03*
X1595D02*
D03*
D25*
X2678Y1758D02*
D03*
Y1808D02*
D03*
Y1858D02*
D03*
Y1908D02*
D03*
X2872D02*
D03*
Y1858D02*
D03*
Y1808D02*
D03*
Y1758D02*
D03*
X3482Y1745D02*
D03*
Y1795D02*
D03*
Y1845D02*
D03*
Y1895D02*
D03*
X3288D02*
D03*
Y1845D02*
D03*
Y1795D02*
D03*
Y1745D02*
D03*
D26*
X3550Y1995D02*
D03*
X3424D02*
D03*
D27*
X3428Y1560D02*
D03*
X3506D02*
D03*
X4306Y4205D02*
D03*
X4385D02*
D03*
D28*
X2360Y1575D02*
D03*
X2580D02*
D03*
D29*
X3056Y4256D02*
D03*
D30*
X2922Y4668D02*
D03*
X2989D02*
D03*
X3056D02*
D03*
X3122D02*
D03*
X3189D02*
D03*
D31*
X2421Y1980D02*
D03*
X3811Y1655D02*
D03*
D32*
X1949Y1980D02*
D03*
X4283Y1655D02*
D03*
D33*
X4630Y4684D02*
D03*
X2393Y3930D02*
D03*
X4090Y2425D02*
D03*
D34*
X4730Y4684D02*
D03*
X1945Y4680D02*
D03*
X2493Y3930D02*
D03*
X2593D02*
D03*
X2693D02*
D03*
X2793D02*
D03*
X2893D02*
D03*
X2993D02*
D03*
X3093D02*
D03*
X3193D02*
D03*
X3293D02*
D03*
X3393D02*
D03*
X3493D02*
D03*
X3593D02*
D03*
X3693D02*
D03*
X3793D02*
D03*
X3990Y2425D02*
D03*
X3890D02*
D03*
X3790D02*
D03*
X3690D02*
D03*
X3590D02*
D03*
X3490D02*
D03*
X3390D02*
D03*
X3290D02*
D03*
X3190D02*
D03*
X3090D02*
D03*
X2990D02*
D03*
X2890D02*
D03*
X2790D02*
D03*
X2690D02*
D03*
X2590D02*
D03*
X2490D02*
D03*
X2390D02*
D03*
X2290D02*
D03*
D35*
X1945Y4580D02*
D03*
D36*
X1658Y4146D02*
D03*
D37*
X1835D02*
D03*
D38*
X2294Y2645D02*
D03*
X2394D02*
D03*
X2494D02*
D03*
X2594D02*
D03*
X2694D02*
D03*
X2794D02*
D03*
X2894D02*
D03*
X2994D02*
D03*
X3094D02*
D03*
X3194D02*
D03*
X3294D02*
D03*
X3394D02*
D03*
X3494D02*
D03*
X3594D02*
D03*
X3694D02*
D03*
X3794D02*
D03*
X3894D02*
D03*
X3994D02*
D03*
X4094D02*
D03*
X2394Y3645D02*
D03*
X2494D02*
D03*
X2594D02*
D03*
X2694D02*
D03*
X2794D02*
D03*
X2894D02*
D03*
X2994D02*
D03*
X3094D02*
D03*
X3194D02*
D03*
X3294D02*
D03*
X3394D02*
D03*
X3494D02*
D03*
X3594D02*
D03*
X3694D02*
D03*
X3794D02*
D03*
X3894D02*
D03*
X2294D02*
D03*
X3994D02*
D03*
D39*
X4094D02*
D03*
D40*
X1565Y4765D02*
D03*
Y1305D02*
D03*
X4895Y1310D02*
D03*
Y4765D02*
D03*
D41*
X3720Y1920D02*
D03*
X2225Y4320D02*
D03*
X2875Y1985D02*
D03*
X2585Y1910D02*
D03*
X3090Y1915D02*
D03*
X2525Y2080D02*
D03*
X4420Y1655D02*
D03*
X4755Y3280D02*
D03*
Y2745D02*
D03*
X4665Y4010D02*
D03*
X4240Y4160D02*
D03*
X2800Y4255D02*
D03*
X2475Y4320D02*
D03*
X1935Y4370D02*
D03*
X2855Y3770D02*
D03*
X2990Y4815D02*
D03*
X3310Y4780D02*
D03*
M02*
