M48
;Layer_Color=9474304
;FILE_FORMAT=2:3
INCH,TZ
;TYPE=PLATED
T1F00S00C0.028
T2F00S00C0.035
T3F00S00C0.041
T4F00S00C0.047
T5F00S00C0.138
;TYPE=NON_PLATED
T6F00S00C0.067
T7F00S00C0.071
%
T01
X4755Y2745
X4420Y1655
X3720Y1920
X3090Y1915
X2875Y1985
X2585Y1910
X2525Y2080
X2855Y3770
X2800Y4255
X2475Y4320
X2225Y4320
X1935Y4370
X4240Y4160
X4665Y4010
X4755Y3280
X3310Y4780
X2990Y4815
T02
X3190Y2425
X3290
X3390
X3490
X3590
X3690
X3790
X3890
X3990
X4090
X3090
X2990
X2890
X2790
X2690
X2590
X2490
X2390
X2290
X2393Y3930
X2493
X2593
X2693
X2793
X2893
X2993
X3093
X1945Y4580
Y4680
X3193Y3930
X3293
X3393
X3493
X3593
X3693
X3793
X4630Y4684
X4730
T03
X3194Y2645
X3294
X3394
X3494
X3594
X3694
X3794
X3894
X3994
X4094
X3094
X2994
X2894
X2794
X2694
X2594
X2494
X2394
X2294
Y3645
X2394
X2494
X2594
X2694
X2794
X2894
X2994
X3094
X3194
X3294
X3394
X3494
X3594
X3694
X3794
X3894
X3994
X4094
T04
X3811Y1655
X4283
X2421Y1980
X1949
T05
X1565Y1305
X4895Y1310
Y4765
X1565
T06
X1835Y4146
T07
X1658Y4146
M30
