G04*
G04 #@! TF.GenerationSoftware,Altium Limited,Altium Designer,22.3.1 (43)*
G04*
G04 Layer_Color=16711935*
%FSLAX23Y23*%
%MOIN*%
G70*
G04*
G04 #@! TF.SameCoordinates,1274CE9F-09AF-47AB-B1D0-44CBEC0A274A*
G04*
G04*
G04 #@! TF.FilePolarity,Negative*
G04*
G01*
G75*
%ADD31O,0.126X0.087*%
%ADD32R,0.126X0.087*%
%ADD33R,0.067X0.067*%
%ADD34C,0.067*%
%ADD35R,0.067X0.067*%
%ADD36C,0.079*%
%ADD37C,0.075*%
%ADD38C,0.069*%
%ADD39R,0.069X0.069*%
%ADD40C,0.165*%
%ADD41C,0.058*%
D31*
X2421Y1980D02*
D03*
X3811Y1655D02*
D03*
D32*
X1949Y1980D02*
D03*
X4283Y1655D02*
D03*
D33*
X4630Y4684D02*
D03*
X2393Y3930D02*
D03*
X4090Y2425D02*
D03*
D34*
X4730Y4684D02*
D03*
X1945Y4680D02*
D03*
X2493Y3930D02*
D03*
X2593D02*
D03*
X2693D02*
D03*
X2793D02*
D03*
X2893D02*
D03*
X2993D02*
D03*
X3093D02*
D03*
X3193D02*
D03*
X3293D02*
D03*
X3393D02*
D03*
X3493D02*
D03*
X3593D02*
D03*
X3693D02*
D03*
X3793D02*
D03*
X3990Y2425D02*
D03*
X3890D02*
D03*
X3790D02*
D03*
X3690D02*
D03*
X3590D02*
D03*
X3490D02*
D03*
X3390D02*
D03*
X3290D02*
D03*
X3190D02*
D03*
X3090D02*
D03*
X2990D02*
D03*
X2890D02*
D03*
X2790D02*
D03*
X2690D02*
D03*
X2590D02*
D03*
X2490D02*
D03*
X2390D02*
D03*
X2290D02*
D03*
D35*
X1945Y4580D02*
D03*
D36*
X1658Y4146D02*
D03*
D37*
X1835D02*
D03*
D38*
X2294Y2645D02*
D03*
X2394D02*
D03*
X2494D02*
D03*
X2594D02*
D03*
X2694D02*
D03*
X2794D02*
D03*
X2894D02*
D03*
X2994D02*
D03*
X3094D02*
D03*
X3194D02*
D03*
X3294D02*
D03*
X3394D02*
D03*
X3494D02*
D03*
X3594D02*
D03*
X3694D02*
D03*
X3794D02*
D03*
X3894D02*
D03*
X3994D02*
D03*
X4094D02*
D03*
X2394Y3645D02*
D03*
X2494D02*
D03*
X2594D02*
D03*
X2694D02*
D03*
X2794D02*
D03*
X2894D02*
D03*
X2994D02*
D03*
X3094D02*
D03*
X3194D02*
D03*
X3294D02*
D03*
X3394D02*
D03*
X3494D02*
D03*
X3594D02*
D03*
X3694D02*
D03*
X3794D02*
D03*
X3894D02*
D03*
X2294D02*
D03*
X3994D02*
D03*
D39*
X4094D02*
D03*
D40*
X1565Y4765D02*
D03*
Y1305D02*
D03*
X4895Y1310D02*
D03*
Y4765D02*
D03*
D41*
X3720Y1920D02*
D03*
X2225Y4320D02*
D03*
X2875Y1985D02*
D03*
X2585Y1910D02*
D03*
X3090Y1915D02*
D03*
X2525Y2080D02*
D03*
X4420Y1655D02*
D03*
X4755Y3280D02*
D03*
Y2745D02*
D03*
X4665Y4010D02*
D03*
X4240Y4160D02*
D03*
X2800Y4255D02*
D03*
X2475Y4320D02*
D03*
X1935Y4370D02*
D03*
X2855Y3770D02*
D03*
X2990Y4815D02*
D03*
X3310Y4780D02*
D03*
M02*
