G04*
G04 #@! TF.GenerationSoftware,Altium Limited,Altium Designer,22.3.1 (43)*
G04*
G04 Layer_Physical_Order=2*
G04 Layer_Color=16711680*
%FSLAX23Y23*%
%MOIN*%
G70*
G04*
G04 #@! TF.SameCoordinates,1274CE9F-09AF-47AB-B1D0-44CBEC0A274A*
G04*
G04*
G04 #@! TF.FilePolarity,Positive*
G04*
G01*
G75*
%ADD15C,0.039*%
%ADD58O,0.118X0.079*%
%ADD59R,0.118X0.079*%
%ADD60R,0.059X0.059*%
%ADD61C,0.059*%
%ADD62R,0.059X0.059*%
%ADD63C,0.071*%
%ADD64C,0.067*%
%ADD65C,0.061*%
%ADD66R,0.061X0.061*%
%ADD67C,0.157*%
%ADD68C,0.050*%
%ADD69C,0.031*%
G36*
X4826Y4708D02*
X4838Y4696D01*
X4853Y4686D01*
X4869Y4680D01*
X4886Y4676D01*
X4904D01*
X4921Y4680D01*
X4924Y4681D01*
X4990Y4605D01*
Y4590D01*
Y1304D01*
X4989Y1303D01*
X4984Y1306D01*
Y1319D01*
X4980Y1336D01*
X4974Y1352D01*
X4964Y1367D01*
X4952Y1379D01*
X4937Y1389D01*
X4921Y1395D01*
X4904Y1399D01*
X4886D01*
X4869Y1395D01*
X4853Y1389D01*
X4838Y1379D01*
X4826Y1367D01*
X4816Y1352D01*
X4810Y1336D01*
X4806Y1319D01*
Y1301D01*
X4810Y1284D01*
X4816Y1268D01*
X4826Y1253D01*
X4838Y1241D01*
X4849Y1234D01*
X4848Y1229D01*
X4770Y1190D01*
X1630D01*
X1592Y1215D01*
X1593Y1220D01*
X1607Y1226D01*
X1622Y1236D01*
X1634Y1248D01*
X1644Y1263D01*
X1650Y1279D01*
X1654Y1296D01*
Y1314D01*
X1650Y1331D01*
X1644Y1347D01*
X1634Y1362D01*
X1622Y1374D01*
X1607Y1384D01*
X1591Y1390D01*
X1574Y1394D01*
X1556D01*
X1539Y1390D01*
X1523Y1384D01*
X1508Y1374D01*
X1496Y1362D01*
X1486Y1347D01*
X1480Y1331D01*
X1476Y1314D01*
Y1297D01*
X1472Y1294D01*
X1425Y1325D01*
Y4602D01*
X1549Y4678D01*
X1556Y4676D01*
X1574D01*
X1591Y4680D01*
X1607Y4686D01*
X1622Y4696D01*
X1634Y4708D01*
X1638Y4715D01*
X1917D01*
X1919Y4710D01*
X1913Y4704D01*
X1908Y4695D01*
X1905Y4685D01*
Y4675D01*
X1908Y4665D01*
X1913Y4656D01*
X1921Y4648D01*
X1930Y4643D01*
X1940Y4640D01*
X1950D01*
X1960Y4643D01*
X1969Y4648D01*
X1977Y4656D01*
X1982Y4665D01*
X1985Y4675D01*
Y4685D01*
X1982Y4695D01*
X1977Y4704D01*
X1971Y4710D01*
X1973Y4715D01*
X4590D01*
Y4645D01*
X4670D01*
Y4715D01*
X4698D01*
X4700Y4710D01*
X4698Y4709D01*
X4693Y4700D01*
X4690Y4690D01*
Y4679D01*
X4693Y4669D01*
X4698Y4660D01*
X4706Y4653D01*
X4715Y4648D01*
X4725Y4645D01*
X4735D01*
X4745Y4648D01*
X4754Y4653D01*
X4762Y4660D01*
X4767Y4669D01*
X4770Y4679D01*
Y4690D01*
X4767Y4700D01*
X4762Y4709D01*
X4760Y4710D01*
X4762Y4715D01*
X4822D01*
X4826Y4708D01*
D02*
G37*
%LPC*%
G36*
X1985Y4620D02*
X1905D01*
Y4540D01*
X1985D01*
Y4620D01*
D02*
G37*
G36*
X1940Y4405D02*
Y4375D01*
X1970D01*
X1968Y4384D01*
X1963Y4391D01*
X1956Y4398D01*
X1949Y4403D01*
X1940Y4405D01*
D02*
G37*
G36*
X1930D02*
X1921Y4403D01*
X1914Y4398D01*
X1907Y4391D01*
X1902Y4384D01*
X1900Y4375D01*
X1930D01*
Y4405D01*
D02*
G37*
G36*
X1970Y4365D02*
X1940D01*
Y4335D01*
X1949Y4337D01*
X1956Y4342D01*
X1963Y4349D01*
X1968Y4356D01*
X1970Y4365D01*
D02*
G37*
G36*
X1930D02*
X1900D01*
X1902Y4356D01*
X1907Y4349D01*
X1914Y4342D01*
X1921Y4337D01*
X1930Y4335D01*
Y4365D01*
D02*
G37*
G36*
X2230Y4355D02*
Y4325D01*
X2260D01*
X2258Y4334D01*
X2253Y4342D01*
X2246Y4348D01*
X2239Y4353D01*
X2230Y4355D01*
D02*
G37*
G36*
X2220D02*
X2211Y4353D01*
X2204Y4348D01*
X2197Y4342D01*
X2192Y4334D01*
X2190Y4325D01*
X2220D01*
Y4355D01*
D02*
G37*
G36*
X2480Y4355D02*
Y4325D01*
X2510D01*
X2508Y4334D01*
X2503Y4341D01*
X2496Y4348D01*
X2489Y4353D01*
X2480Y4355D01*
D02*
G37*
G36*
X2470D02*
X2461Y4353D01*
X2454Y4348D01*
X2447Y4341D01*
X2442Y4334D01*
X2440Y4325D01*
X2470D01*
Y4355D01*
D02*
G37*
G36*
X2260Y4315D02*
X2230D01*
Y4285D01*
X2239Y4287D01*
X2246Y4292D01*
X2253Y4299D01*
X2258Y4307D01*
X2260Y4315D01*
D02*
G37*
G36*
X2220D02*
X2190D01*
X2192Y4307D01*
X2197Y4299D01*
X2204Y4292D01*
X2211Y4287D01*
X2220Y4285D01*
Y4315D01*
D02*
G37*
G36*
X2510Y4315D02*
X2480D01*
Y4285D01*
X2489Y4287D01*
X2496Y4292D01*
X2503Y4299D01*
X2508Y4306D01*
X2510Y4315D01*
D02*
G37*
G36*
X2470D02*
X2440D01*
X2442Y4306D01*
X2447Y4299D01*
X2454Y4292D01*
X2461Y4287D01*
X2470Y4285D01*
Y4315D01*
D02*
G37*
G36*
X2805Y4290D02*
Y4260D01*
X2835D01*
X2833Y4269D01*
X2828Y4276D01*
X2821Y4283D01*
X2814Y4288D01*
X2805Y4290D01*
D02*
G37*
G36*
X2795D02*
X2786Y4288D01*
X2779Y4283D01*
X2772Y4276D01*
X2767Y4269D01*
X2765Y4260D01*
X2795D01*
Y4290D01*
D02*
G37*
G36*
X2835Y4250D02*
X2805D01*
Y4220D01*
X2814Y4222D01*
X2821Y4227D01*
X2828Y4234D01*
X2833Y4241D01*
X2835Y4250D01*
D02*
G37*
G36*
X2795D02*
X2765D01*
X2767Y4241D01*
X2772Y4234D01*
X2779Y4227D01*
X2786Y4222D01*
X2795Y4220D01*
Y4250D01*
D02*
G37*
G36*
X4245Y4195D02*
Y4165D01*
X4275D01*
X4273Y4174D01*
X4268Y4181D01*
X4261Y4188D01*
X4254Y4193D01*
X4245Y4195D01*
D02*
G37*
G36*
X4235D02*
X4226Y4193D01*
X4219Y4188D01*
X4212Y4181D01*
X4207Y4174D01*
X4205Y4165D01*
X4235D01*
Y4195D01*
D02*
G37*
G36*
X4275Y4155D02*
X4245D01*
Y4125D01*
X4254Y4127D01*
X4261Y4132D01*
X4268Y4139D01*
X4273Y4146D01*
X4275Y4155D01*
D02*
G37*
G36*
X4235D02*
X4205D01*
X4207Y4146D01*
X4212Y4139D01*
X4219Y4132D01*
X4226Y4127D01*
X4235Y4125D01*
Y4155D01*
D02*
G37*
G36*
X1841Y4189D02*
X1829D01*
X1818Y4186D01*
X1808Y4180D01*
X1800Y4172D01*
X1795Y4162D01*
X1792Y4151D01*
Y4140D01*
X1795Y4129D01*
X1800Y4119D01*
X1808Y4111D01*
X1818Y4105D01*
X1829Y4102D01*
X1841D01*
X1852Y4105D01*
X1862Y4111D01*
X1870Y4119D01*
X1876Y4129D01*
X1879Y4140D01*
Y4151D01*
X1876Y4162D01*
X1870Y4172D01*
X1862Y4180D01*
X1852Y4186D01*
X1841Y4189D01*
D02*
G37*
G36*
X1664Y4191D02*
X1652D01*
X1640Y4188D01*
X1630Y4182D01*
X1622Y4173D01*
X1616Y4163D01*
X1613Y4152D01*
Y4140D01*
X1616Y4128D01*
X1622Y4118D01*
X1630Y4109D01*
X1640Y4103D01*
X1652Y4100D01*
X1664D01*
X1676Y4103D01*
X1686Y4109D01*
X1694Y4118D01*
X1700Y4128D01*
X1703Y4140D01*
Y4152D01*
X1700Y4163D01*
X1694Y4173D01*
X1686Y4182D01*
X1676Y4188D01*
X1664Y4191D01*
D02*
G37*
G36*
X4670Y4045D02*
Y4015D01*
X4700D01*
X4698Y4024D01*
X4693Y4031D01*
X4686Y4038D01*
X4679Y4043D01*
X4670Y4045D01*
D02*
G37*
G36*
X4660D02*
X4651Y4043D01*
X4644Y4038D01*
X4637Y4031D01*
X4632Y4024D01*
X4630Y4015D01*
X4660D01*
Y4045D01*
D02*
G37*
G36*
X4700Y4005D02*
X4670D01*
Y3975D01*
X4679Y3977D01*
X4686Y3982D01*
X4693Y3989D01*
X4698Y3996D01*
X4700Y4005D01*
D02*
G37*
G36*
X4660D02*
X4630D01*
X4632Y3996D01*
X4637Y3989D01*
X4644Y3982D01*
X4651Y3977D01*
X4660Y3975D01*
Y4005D01*
D02*
G37*
G36*
X3798Y3970D02*
X3787D01*
X3777Y3967D01*
X3768Y3962D01*
X3761Y3954D01*
X3756Y3945D01*
X3753Y3935D01*
Y3925D01*
X3756Y3915D01*
X3761Y3906D01*
X3768Y3898D01*
X3777Y3893D01*
X3787Y3890D01*
X3798D01*
X3808Y3893D01*
X3817Y3898D01*
X3824Y3906D01*
X3829Y3915D01*
X3832Y3925D01*
Y3935D01*
X3829Y3945D01*
X3824Y3954D01*
X3817Y3962D01*
X3808Y3967D01*
X3798Y3970D01*
D02*
G37*
G36*
X3698D02*
X3687D01*
X3677Y3967D01*
X3668Y3962D01*
X3661Y3954D01*
X3656Y3945D01*
X3653Y3935D01*
Y3925D01*
X3656Y3915D01*
X3661Y3906D01*
X3668Y3898D01*
X3677Y3893D01*
X3687Y3890D01*
X3698D01*
X3708Y3893D01*
X3717Y3898D01*
X3724Y3906D01*
X3729Y3915D01*
X3732Y3925D01*
Y3935D01*
X3729Y3945D01*
X3724Y3954D01*
X3717Y3962D01*
X3708Y3967D01*
X3698Y3970D01*
D02*
G37*
G36*
X3598D02*
X3587D01*
X3577Y3967D01*
X3568Y3962D01*
X3561Y3954D01*
X3556Y3945D01*
X3553Y3935D01*
Y3925D01*
X3556Y3915D01*
X3561Y3906D01*
X3568Y3898D01*
X3577Y3893D01*
X3587Y3890D01*
X3598D01*
X3608Y3893D01*
X3617Y3898D01*
X3624Y3906D01*
X3629Y3915D01*
X3632Y3925D01*
Y3935D01*
X3629Y3945D01*
X3624Y3954D01*
X3617Y3962D01*
X3608Y3967D01*
X3598Y3970D01*
D02*
G37*
G36*
X3498D02*
X3487D01*
X3477Y3967D01*
X3468Y3962D01*
X3461Y3954D01*
X3456Y3945D01*
X3453Y3935D01*
Y3925D01*
X3456Y3915D01*
X3461Y3906D01*
X3468Y3898D01*
X3477Y3893D01*
X3487Y3890D01*
X3498D01*
X3508Y3893D01*
X3517Y3898D01*
X3524Y3906D01*
X3529Y3915D01*
X3532Y3925D01*
Y3935D01*
X3529Y3945D01*
X3524Y3954D01*
X3517Y3962D01*
X3508Y3967D01*
X3498Y3970D01*
D02*
G37*
G36*
X3398D02*
X3387D01*
X3377Y3967D01*
X3368Y3962D01*
X3361Y3954D01*
X3356Y3945D01*
X3353Y3935D01*
Y3925D01*
X3356Y3915D01*
X3361Y3906D01*
X3368Y3898D01*
X3377Y3893D01*
X3387Y3890D01*
X3398D01*
X3408Y3893D01*
X3417Y3898D01*
X3424Y3906D01*
X3429Y3915D01*
X3432Y3925D01*
Y3935D01*
X3429Y3945D01*
X3424Y3954D01*
X3417Y3962D01*
X3408Y3967D01*
X3398Y3970D01*
D02*
G37*
G36*
X3298D02*
X3287D01*
X3277Y3967D01*
X3268Y3962D01*
X3261Y3954D01*
X3256Y3945D01*
X3253Y3935D01*
Y3925D01*
X3256Y3915D01*
X3261Y3906D01*
X3268Y3898D01*
X3277Y3893D01*
X3287Y3890D01*
X3298D01*
X3308Y3893D01*
X3317Y3898D01*
X3324Y3906D01*
X3329Y3915D01*
X3332Y3925D01*
Y3935D01*
X3329Y3945D01*
X3324Y3954D01*
X3317Y3962D01*
X3308Y3967D01*
X3298Y3970D01*
D02*
G37*
G36*
X3198D02*
X3187D01*
X3177Y3967D01*
X3168Y3962D01*
X3161Y3954D01*
X3156Y3945D01*
X3153Y3935D01*
Y3925D01*
X3156Y3915D01*
X3161Y3906D01*
X3168Y3898D01*
X3177Y3893D01*
X3187Y3890D01*
X3198D01*
X3208Y3893D01*
X3217Y3898D01*
X3224Y3906D01*
X3229Y3915D01*
X3232Y3925D01*
Y3935D01*
X3229Y3945D01*
X3224Y3954D01*
X3217Y3962D01*
X3208Y3967D01*
X3198Y3970D01*
D02*
G37*
G36*
X3098D02*
X3087D01*
X3077Y3967D01*
X3068Y3962D01*
X3061Y3954D01*
X3056Y3945D01*
X3053Y3935D01*
Y3925D01*
X3056Y3915D01*
X3061Y3906D01*
X3068Y3898D01*
X3077Y3893D01*
X3087Y3890D01*
X3098D01*
X3108Y3893D01*
X3117Y3898D01*
X3124Y3906D01*
X3129Y3915D01*
X3132Y3925D01*
Y3935D01*
X3129Y3945D01*
X3124Y3954D01*
X3117Y3962D01*
X3108Y3967D01*
X3098Y3970D01*
D02*
G37*
G36*
X2998D02*
X2987D01*
X2977Y3967D01*
X2968Y3962D01*
X2961Y3954D01*
X2956Y3945D01*
X2953Y3935D01*
Y3925D01*
X2956Y3915D01*
X2961Y3906D01*
X2968Y3898D01*
X2977Y3893D01*
X2987Y3890D01*
X2998D01*
X3008Y3893D01*
X3017Y3898D01*
X3024Y3906D01*
X3029Y3915D01*
X3032Y3925D01*
Y3935D01*
X3029Y3945D01*
X3024Y3954D01*
X3017Y3962D01*
X3008Y3967D01*
X2998Y3970D01*
D02*
G37*
G36*
X2898D02*
X2887D01*
X2877Y3967D01*
X2868Y3962D01*
X2861Y3954D01*
X2856Y3945D01*
X2853Y3935D01*
Y3925D01*
X2856Y3915D01*
X2861Y3906D01*
X2868Y3898D01*
X2877Y3893D01*
X2887Y3890D01*
X2898D01*
X2908Y3893D01*
X2917Y3898D01*
X2924Y3906D01*
X2929Y3915D01*
X2932Y3925D01*
Y3935D01*
X2929Y3945D01*
X2924Y3954D01*
X2917Y3962D01*
X2908Y3967D01*
X2898Y3970D01*
D02*
G37*
G36*
X2798D02*
X2787D01*
X2777Y3967D01*
X2768Y3962D01*
X2761Y3954D01*
X2756Y3945D01*
X2753Y3935D01*
Y3925D01*
X2756Y3915D01*
X2761Y3906D01*
X2768Y3898D01*
X2777Y3893D01*
X2787Y3890D01*
X2798D01*
X2808Y3893D01*
X2817Y3898D01*
X2824Y3906D01*
X2829Y3915D01*
X2832Y3925D01*
Y3935D01*
X2829Y3945D01*
X2824Y3954D01*
X2817Y3962D01*
X2808Y3967D01*
X2798Y3970D01*
D02*
G37*
G36*
X2698D02*
X2687D01*
X2677Y3967D01*
X2668Y3962D01*
X2661Y3954D01*
X2656Y3945D01*
X2653Y3935D01*
Y3925D01*
X2656Y3915D01*
X2661Y3906D01*
X2668Y3898D01*
X2677Y3893D01*
X2687Y3890D01*
X2698D01*
X2708Y3893D01*
X2717Y3898D01*
X2724Y3906D01*
X2729Y3915D01*
X2732Y3925D01*
Y3935D01*
X2729Y3945D01*
X2724Y3954D01*
X2717Y3962D01*
X2708Y3967D01*
X2698Y3970D01*
D02*
G37*
G36*
X2598D02*
X2587D01*
X2577Y3967D01*
X2568Y3962D01*
X2561Y3954D01*
X2556Y3945D01*
X2553Y3935D01*
Y3925D01*
X2556Y3915D01*
X2561Y3906D01*
X2568Y3898D01*
X2577Y3893D01*
X2587Y3890D01*
X2598D01*
X2608Y3893D01*
X2617Y3898D01*
X2624Y3906D01*
X2629Y3915D01*
X2632Y3925D01*
Y3935D01*
X2629Y3945D01*
X2624Y3954D01*
X2617Y3962D01*
X2608Y3967D01*
X2598Y3970D01*
D02*
G37*
G36*
X2498D02*
X2487D01*
X2477Y3967D01*
X2468Y3962D01*
X2461Y3954D01*
X2456Y3945D01*
X2453Y3935D01*
Y3925D01*
X2456Y3915D01*
X2461Y3906D01*
X2468Y3898D01*
X2477Y3893D01*
X2487Y3890D01*
X2498D01*
X2508Y3893D01*
X2517Y3898D01*
X2524Y3906D01*
X2529Y3915D01*
X2532Y3925D01*
Y3935D01*
X2529Y3945D01*
X2524Y3954D01*
X2517Y3962D01*
X2508Y3967D01*
X2498Y3970D01*
D02*
G37*
G36*
X2432D02*
X2353D01*
Y3890D01*
X2432D01*
Y3970D01*
D02*
G37*
G36*
X2860Y3805D02*
Y3775D01*
X2890D01*
X2888Y3784D01*
X2883Y3791D01*
X2876Y3798D01*
X2869Y3803D01*
X2860Y3805D01*
D02*
G37*
G36*
X2850D02*
X2841Y3803D01*
X2834Y3798D01*
X2827Y3791D01*
X2822Y3784D01*
X2820Y3775D01*
X2850D01*
Y3805D01*
D02*
G37*
G36*
X2890Y3765D02*
X2860D01*
Y3735D01*
X2869Y3737D01*
X2876Y3742D01*
X2883Y3749D01*
X2888Y3756D01*
X2890Y3765D01*
D02*
G37*
G36*
X2850D02*
X2820D01*
X2822Y3756D01*
X2827Y3749D01*
X2834Y3742D01*
X2841Y3737D01*
X2850Y3735D01*
Y3765D01*
D02*
G37*
G36*
X2799Y3686D02*
X2799D01*
Y3650D01*
X2835D01*
Y3650D01*
X2832Y3661D01*
X2826Y3670D01*
X2819Y3678D01*
X2810Y3683D01*
X2799Y3686D01*
D02*
G37*
G36*
X2789D02*
X2788D01*
X2778Y3683D01*
X2769Y3678D01*
X2761Y3670D01*
X2756Y3661D01*
X2753Y3650D01*
Y3650D01*
X2789D01*
Y3686D01*
D02*
G37*
G36*
X4135D02*
X4053D01*
Y3604D01*
X4135D01*
Y3686D01*
D02*
G37*
G36*
X3999D02*
X3988D01*
X3978Y3683D01*
X3969Y3678D01*
X3961Y3670D01*
X3956Y3661D01*
X3953Y3650D01*
Y3640D01*
X3956Y3629D01*
X3961Y3620D01*
X3969Y3612D01*
X3978Y3607D01*
X3988Y3604D01*
X3999D01*
X4010Y3607D01*
X4019Y3612D01*
X4026Y3620D01*
X4032Y3629D01*
X4035Y3640D01*
Y3650D01*
X4032Y3661D01*
X4026Y3670D01*
X4019Y3678D01*
X4010Y3683D01*
X3999Y3686D01*
D02*
G37*
G36*
X3899D02*
X3888D01*
X3878Y3683D01*
X3869Y3678D01*
X3861Y3670D01*
X3856Y3661D01*
X3853Y3650D01*
Y3640D01*
X3856Y3629D01*
X3861Y3620D01*
X3869Y3612D01*
X3878Y3607D01*
X3888Y3604D01*
X3899D01*
X3910Y3607D01*
X3919Y3612D01*
X3926Y3620D01*
X3932Y3629D01*
X3935Y3640D01*
Y3650D01*
X3932Y3661D01*
X3926Y3670D01*
X3919Y3678D01*
X3910Y3683D01*
X3899Y3686D01*
D02*
G37*
G36*
X3799D02*
X3788D01*
X3778Y3683D01*
X3769Y3678D01*
X3761Y3670D01*
X3756Y3661D01*
X3753Y3650D01*
Y3640D01*
X3756Y3629D01*
X3761Y3620D01*
X3769Y3612D01*
X3778Y3607D01*
X3788Y3604D01*
X3799D01*
X3810Y3607D01*
X3819Y3612D01*
X3826Y3620D01*
X3832Y3629D01*
X3835Y3640D01*
Y3650D01*
X3832Y3661D01*
X3826Y3670D01*
X3819Y3678D01*
X3810Y3683D01*
X3799Y3686D01*
D02*
G37*
G36*
X3699D02*
X3688D01*
X3678Y3683D01*
X3669Y3678D01*
X3661Y3670D01*
X3656Y3661D01*
X3653Y3650D01*
Y3640D01*
X3656Y3629D01*
X3661Y3620D01*
X3669Y3612D01*
X3678Y3607D01*
X3688Y3604D01*
X3699D01*
X3710Y3607D01*
X3719Y3612D01*
X3726Y3620D01*
X3732Y3629D01*
X3735Y3640D01*
Y3650D01*
X3732Y3661D01*
X3726Y3670D01*
X3719Y3678D01*
X3710Y3683D01*
X3699Y3686D01*
D02*
G37*
G36*
X3599D02*
X3588D01*
X3578Y3683D01*
X3569Y3678D01*
X3561Y3670D01*
X3556Y3661D01*
X3553Y3650D01*
Y3640D01*
X3556Y3629D01*
X3561Y3620D01*
X3569Y3612D01*
X3578Y3607D01*
X3588Y3604D01*
X3599D01*
X3610Y3607D01*
X3619Y3612D01*
X3626Y3620D01*
X3632Y3629D01*
X3635Y3640D01*
Y3650D01*
X3632Y3661D01*
X3626Y3670D01*
X3619Y3678D01*
X3610Y3683D01*
X3599Y3686D01*
D02*
G37*
G36*
X3499D02*
X3488D01*
X3478Y3683D01*
X3469Y3678D01*
X3461Y3670D01*
X3456Y3661D01*
X3453Y3650D01*
Y3640D01*
X3456Y3629D01*
X3461Y3620D01*
X3469Y3612D01*
X3478Y3607D01*
X3488Y3604D01*
X3499D01*
X3510Y3607D01*
X3519Y3612D01*
X3526Y3620D01*
X3532Y3629D01*
X3535Y3640D01*
Y3650D01*
X3532Y3661D01*
X3526Y3670D01*
X3519Y3678D01*
X3510Y3683D01*
X3499Y3686D01*
D02*
G37*
G36*
X3399D02*
X3388D01*
X3378Y3683D01*
X3369Y3678D01*
X3361Y3670D01*
X3356Y3661D01*
X3353Y3650D01*
Y3640D01*
X3356Y3629D01*
X3361Y3620D01*
X3369Y3612D01*
X3378Y3607D01*
X3388Y3604D01*
X3399D01*
X3410Y3607D01*
X3419Y3612D01*
X3426Y3620D01*
X3432Y3629D01*
X3435Y3640D01*
Y3650D01*
X3432Y3661D01*
X3426Y3670D01*
X3419Y3678D01*
X3410Y3683D01*
X3399Y3686D01*
D02*
G37*
G36*
X3299D02*
X3288D01*
X3278Y3683D01*
X3269Y3678D01*
X3261Y3670D01*
X3256Y3661D01*
X3253Y3650D01*
Y3640D01*
X3256Y3629D01*
X3261Y3620D01*
X3269Y3612D01*
X3278Y3607D01*
X3288Y3604D01*
X3299D01*
X3310Y3607D01*
X3319Y3612D01*
X3326Y3620D01*
X3332Y3629D01*
X3335Y3640D01*
Y3650D01*
X3332Y3661D01*
X3326Y3670D01*
X3319Y3678D01*
X3310Y3683D01*
X3299Y3686D01*
D02*
G37*
G36*
X3199D02*
X3188D01*
X3178Y3683D01*
X3169Y3678D01*
X3161Y3670D01*
X3156Y3661D01*
X3153Y3650D01*
Y3640D01*
X3156Y3629D01*
X3161Y3620D01*
X3169Y3612D01*
X3178Y3607D01*
X3188Y3604D01*
X3199D01*
X3210Y3607D01*
X3219Y3612D01*
X3226Y3620D01*
X3232Y3629D01*
X3235Y3640D01*
Y3650D01*
X3232Y3661D01*
X3226Y3670D01*
X3219Y3678D01*
X3210Y3683D01*
X3199Y3686D01*
D02*
G37*
G36*
X3099D02*
X3088D01*
X3078Y3683D01*
X3069Y3678D01*
X3061Y3670D01*
X3056Y3661D01*
X3053Y3650D01*
Y3640D01*
X3056Y3629D01*
X3061Y3620D01*
X3069Y3612D01*
X3078Y3607D01*
X3088Y3604D01*
X3099D01*
X3110Y3607D01*
X3119Y3612D01*
X3126Y3620D01*
X3132Y3629D01*
X3135Y3640D01*
Y3650D01*
X3132Y3661D01*
X3126Y3670D01*
X3119Y3678D01*
X3110Y3683D01*
X3099Y3686D01*
D02*
G37*
G36*
X2999D02*
X2988D01*
X2978Y3683D01*
X2969Y3678D01*
X2961Y3670D01*
X2956Y3661D01*
X2953Y3650D01*
Y3640D01*
X2956Y3629D01*
X2961Y3620D01*
X2969Y3612D01*
X2978Y3607D01*
X2988Y3604D01*
X2999D01*
X3010Y3607D01*
X3019Y3612D01*
X3026Y3620D01*
X3032Y3629D01*
X3035Y3640D01*
Y3650D01*
X3032Y3661D01*
X3026Y3670D01*
X3019Y3678D01*
X3010Y3683D01*
X2999Y3686D01*
D02*
G37*
G36*
X2899D02*
X2888D01*
X2878Y3683D01*
X2869Y3678D01*
X2861Y3670D01*
X2856Y3661D01*
X2853Y3650D01*
Y3640D01*
X2856Y3629D01*
X2861Y3620D01*
X2869Y3612D01*
X2878Y3607D01*
X2888Y3604D01*
X2899D01*
X2910Y3607D01*
X2919Y3612D01*
X2926Y3620D01*
X2932Y3629D01*
X2935Y3640D01*
Y3650D01*
X2932Y3661D01*
X2926Y3670D01*
X2919Y3678D01*
X2910Y3683D01*
X2899Y3686D01*
D02*
G37*
G36*
X2835Y3640D02*
X2799D01*
Y3604D01*
X2799D01*
X2810Y3607D01*
X2819Y3612D01*
X2826Y3620D01*
X2832Y3629D01*
X2835Y3640D01*
Y3640D01*
D02*
G37*
G36*
X2789D02*
X2753D01*
Y3640D01*
X2756Y3629D01*
X2761Y3620D01*
X2769Y3612D01*
X2778Y3607D01*
X2788Y3604D01*
X2789D01*
Y3640D01*
D02*
G37*
G36*
X2699Y3686D02*
X2688D01*
X2678Y3683D01*
X2669Y3678D01*
X2661Y3670D01*
X2656Y3661D01*
X2653Y3650D01*
Y3640D01*
X2656Y3629D01*
X2661Y3620D01*
X2669Y3612D01*
X2678Y3607D01*
X2688Y3604D01*
X2699D01*
X2710Y3607D01*
X2719Y3612D01*
X2726Y3620D01*
X2732Y3629D01*
X2735Y3640D01*
Y3650D01*
X2732Y3661D01*
X2726Y3670D01*
X2719Y3678D01*
X2710Y3683D01*
X2699Y3686D01*
D02*
G37*
G36*
X2599D02*
X2588D01*
X2578Y3683D01*
X2569Y3678D01*
X2561Y3670D01*
X2556Y3661D01*
X2553Y3650D01*
Y3640D01*
X2556Y3629D01*
X2561Y3620D01*
X2569Y3612D01*
X2578Y3607D01*
X2588Y3604D01*
X2599D01*
X2610Y3607D01*
X2619Y3612D01*
X2626Y3620D01*
X2632Y3629D01*
X2635Y3640D01*
Y3650D01*
X2632Y3661D01*
X2626Y3670D01*
X2619Y3678D01*
X2610Y3683D01*
X2599Y3686D01*
D02*
G37*
G36*
X2499D02*
X2488D01*
X2478Y3683D01*
X2469Y3678D01*
X2461Y3670D01*
X2456Y3661D01*
X2453Y3650D01*
Y3640D01*
X2456Y3629D01*
X2461Y3620D01*
X2469Y3612D01*
X2478Y3607D01*
X2488Y3604D01*
X2499D01*
X2510Y3607D01*
X2519Y3612D01*
X2526Y3620D01*
X2532Y3629D01*
X2535Y3640D01*
Y3650D01*
X2532Y3661D01*
X2526Y3670D01*
X2519Y3678D01*
X2510Y3683D01*
X2499Y3686D01*
D02*
G37*
G36*
X2399D02*
X2388D01*
X2378Y3683D01*
X2369Y3678D01*
X2361Y3670D01*
X2356Y3661D01*
X2353Y3650D01*
Y3640D01*
X2356Y3629D01*
X2361Y3620D01*
X2369Y3612D01*
X2378Y3607D01*
X2388Y3604D01*
X2399D01*
X2410Y3607D01*
X2419Y3612D01*
X2426Y3620D01*
X2432Y3629D01*
X2435Y3640D01*
Y3650D01*
X2432Y3661D01*
X2426Y3670D01*
X2419Y3678D01*
X2410Y3683D01*
X2399Y3686D01*
D02*
G37*
G36*
X2299D02*
X2288D01*
X2278Y3683D01*
X2269Y3678D01*
X2261Y3670D01*
X2256Y3661D01*
X2253Y3650D01*
Y3640D01*
X2256Y3629D01*
X2261Y3620D01*
X2269Y3612D01*
X2278Y3607D01*
X2288Y3604D01*
X2299D01*
X2310Y3607D01*
X2319Y3612D01*
X2326Y3620D01*
X2332Y3629D01*
X2335Y3640D01*
Y3650D01*
X2332Y3661D01*
X2326Y3670D01*
X2319Y3678D01*
X2310Y3683D01*
X2299Y3686D01*
D02*
G37*
G36*
X4760Y3315D02*
Y3285D01*
X4790D01*
X4788Y3294D01*
X4783Y3301D01*
X4776Y3308D01*
X4769Y3313D01*
X4760Y3315D01*
D02*
G37*
G36*
X4750D02*
X4741Y3313D01*
X4734Y3308D01*
X4727Y3301D01*
X4722Y3294D01*
X4720Y3285D01*
X4750D01*
Y3315D01*
D02*
G37*
G36*
X4790Y3275D02*
X4760D01*
Y3245D01*
X4769Y3247D01*
X4776Y3252D01*
X4783Y3259D01*
X4788Y3266D01*
X4790Y3275D01*
D02*
G37*
G36*
X4750D02*
X4720D01*
X4722Y3266D01*
X4727Y3259D01*
X4734Y3252D01*
X4741Y3247D01*
X4750Y3245D01*
Y3275D01*
D02*
G37*
G36*
X4760Y2780D02*
Y2750D01*
X4790D01*
X4788Y2759D01*
X4783Y2766D01*
X4776Y2773D01*
X4769Y2778D01*
X4760Y2780D01*
D02*
G37*
G36*
X4750D02*
X4741Y2778D01*
X4734Y2773D01*
X4727Y2766D01*
X4722Y2759D01*
X4720Y2750D01*
X4750D01*
Y2780D01*
D02*
G37*
G36*
X4790Y2740D02*
X4760D01*
Y2710D01*
X4769Y2712D01*
X4776Y2717D01*
X4783Y2724D01*
X4788Y2731D01*
X4790Y2740D01*
D02*
G37*
G36*
X4750D02*
X4720D01*
X4722Y2731D01*
X4727Y2724D01*
X4734Y2717D01*
X4741Y2712D01*
X4750Y2710D01*
Y2740D01*
D02*
G37*
G36*
X4099Y2686D02*
X4088D01*
X4078Y2683D01*
X4069Y2678D01*
X4061Y2670D01*
X4056Y2661D01*
X4053Y2650D01*
Y2640D01*
X4056Y2629D01*
X4061Y2620D01*
X4069Y2612D01*
X4078Y2607D01*
X4088Y2604D01*
X4099D01*
X4110Y2607D01*
X4119Y2612D01*
X4126Y2620D01*
X4132Y2629D01*
X4135Y2640D01*
Y2650D01*
X4132Y2661D01*
X4126Y2670D01*
X4119Y2678D01*
X4110Y2683D01*
X4099Y2686D01*
D02*
G37*
G36*
X3999D02*
X3988D01*
X3978Y2683D01*
X3969Y2678D01*
X3961Y2670D01*
X3956Y2661D01*
X3953Y2650D01*
Y2640D01*
X3956Y2629D01*
X3961Y2620D01*
X3969Y2612D01*
X3978Y2607D01*
X3988Y2604D01*
X3999D01*
X4010Y2607D01*
X4019Y2612D01*
X4026Y2620D01*
X4032Y2629D01*
X4035Y2640D01*
Y2650D01*
X4032Y2661D01*
X4026Y2670D01*
X4019Y2678D01*
X4010Y2683D01*
X3999Y2686D01*
D02*
G37*
G36*
X3899D02*
X3888D01*
X3878Y2683D01*
X3869Y2678D01*
X3861Y2670D01*
X3856Y2661D01*
X3853Y2650D01*
Y2640D01*
X3856Y2629D01*
X3861Y2620D01*
X3869Y2612D01*
X3878Y2607D01*
X3888Y2604D01*
X3899D01*
X3910Y2607D01*
X3919Y2612D01*
X3926Y2620D01*
X3932Y2629D01*
X3935Y2640D01*
Y2650D01*
X3932Y2661D01*
X3926Y2670D01*
X3919Y2678D01*
X3910Y2683D01*
X3899Y2686D01*
D02*
G37*
G36*
X3799D02*
X3788D01*
X3778Y2683D01*
X3769Y2678D01*
X3761Y2670D01*
X3756Y2661D01*
X3753Y2650D01*
Y2640D01*
X3756Y2629D01*
X3761Y2620D01*
X3769Y2612D01*
X3778Y2607D01*
X3788Y2604D01*
X3799D01*
X3810Y2607D01*
X3819Y2612D01*
X3826Y2620D01*
X3832Y2629D01*
X3835Y2640D01*
Y2650D01*
X3832Y2661D01*
X3826Y2670D01*
X3819Y2678D01*
X3810Y2683D01*
X3799Y2686D01*
D02*
G37*
G36*
X3699D02*
X3688D01*
X3678Y2683D01*
X3669Y2678D01*
X3661Y2670D01*
X3656Y2661D01*
X3653Y2650D01*
Y2640D01*
X3656Y2629D01*
X3661Y2620D01*
X3669Y2612D01*
X3678Y2607D01*
X3688Y2604D01*
X3699D01*
X3710Y2607D01*
X3719Y2612D01*
X3726Y2620D01*
X3732Y2629D01*
X3735Y2640D01*
Y2650D01*
X3732Y2661D01*
X3726Y2670D01*
X3719Y2678D01*
X3710Y2683D01*
X3699Y2686D01*
D02*
G37*
G36*
X3599D02*
X3588D01*
X3578Y2683D01*
X3569Y2678D01*
X3561Y2670D01*
X3556Y2661D01*
X3553Y2650D01*
Y2640D01*
X3556Y2629D01*
X3561Y2620D01*
X3569Y2612D01*
X3578Y2607D01*
X3588Y2604D01*
X3599D01*
X3610Y2607D01*
X3619Y2612D01*
X3626Y2620D01*
X3632Y2629D01*
X3635Y2640D01*
Y2650D01*
X3632Y2661D01*
X3626Y2670D01*
X3619Y2678D01*
X3610Y2683D01*
X3599Y2686D01*
D02*
G37*
G36*
X3499D02*
X3488D01*
X3478Y2683D01*
X3469Y2678D01*
X3461Y2670D01*
X3456Y2661D01*
X3453Y2650D01*
Y2640D01*
X3456Y2629D01*
X3461Y2620D01*
X3469Y2612D01*
X3478Y2607D01*
X3488Y2604D01*
X3499D01*
X3510Y2607D01*
X3519Y2612D01*
X3526Y2620D01*
X3532Y2629D01*
X3535Y2640D01*
Y2650D01*
X3532Y2661D01*
X3526Y2670D01*
X3519Y2678D01*
X3510Y2683D01*
X3499Y2686D01*
D02*
G37*
G36*
X3399D02*
X3388D01*
X3378Y2683D01*
X3369Y2678D01*
X3361Y2670D01*
X3356Y2661D01*
X3353Y2650D01*
Y2640D01*
X3356Y2629D01*
X3361Y2620D01*
X3369Y2612D01*
X3378Y2607D01*
X3388Y2604D01*
X3399D01*
X3410Y2607D01*
X3419Y2612D01*
X3426Y2620D01*
X3432Y2629D01*
X3435Y2640D01*
Y2650D01*
X3432Y2661D01*
X3426Y2670D01*
X3419Y2678D01*
X3410Y2683D01*
X3399Y2686D01*
D02*
G37*
G36*
X3299D02*
X3288D01*
X3278Y2683D01*
X3269Y2678D01*
X3261Y2670D01*
X3256Y2661D01*
X3253Y2650D01*
Y2640D01*
X3256Y2629D01*
X3261Y2620D01*
X3269Y2612D01*
X3278Y2607D01*
X3288Y2604D01*
X3299D01*
X3310Y2607D01*
X3319Y2612D01*
X3326Y2620D01*
X3332Y2629D01*
X3335Y2640D01*
Y2650D01*
X3332Y2661D01*
X3326Y2670D01*
X3319Y2678D01*
X3310Y2683D01*
X3299Y2686D01*
D02*
G37*
G36*
X3199D02*
X3188D01*
X3178Y2683D01*
X3169Y2678D01*
X3161Y2670D01*
X3156Y2661D01*
X3153Y2650D01*
Y2640D01*
X3156Y2629D01*
X3161Y2620D01*
X3169Y2612D01*
X3178Y2607D01*
X3188Y2604D01*
X3199D01*
X3210Y2607D01*
X3219Y2612D01*
X3226Y2620D01*
X3232Y2629D01*
X3235Y2640D01*
Y2650D01*
X3232Y2661D01*
X3226Y2670D01*
X3219Y2678D01*
X3210Y2683D01*
X3199Y2686D01*
D02*
G37*
G36*
X3099D02*
X3088D01*
X3078Y2683D01*
X3069Y2678D01*
X3061Y2670D01*
X3056Y2661D01*
X3053Y2650D01*
Y2640D01*
X3056Y2629D01*
X3061Y2620D01*
X3069Y2612D01*
X3078Y2607D01*
X3088Y2604D01*
X3099D01*
X3110Y2607D01*
X3119Y2612D01*
X3126Y2620D01*
X3132Y2629D01*
X3135Y2640D01*
Y2650D01*
X3132Y2661D01*
X3126Y2670D01*
X3119Y2678D01*
X3110Y2683D01*
X3099Y2686D01*
D02*
G37*
G36*
X2999D02*
X2988D01*
X2978Y2683D01*
X2969Y2678D01*
X2961Y2670D01*
X2956Y2661D01*
X2953Y2650D01*
Y2640D01*
X2956Y2629D01*
X2961Y2620D01*
X2969Y2612D01*
X2978Y2607D01*
X2988Y2604D01*
X2999D01*
X3010Y2607D01*
X3019Y2612D01*
X3026Y2620D01*
X3032Y2629D01*
X3035Y2640D01*
Y2650D01*
X3032Y2661D01*
X3026Y2670D01*
X3019Y2678D01*
X3010Y2683D01*
X2999Y2686D01*
D02*
G37*
G36*
X2899D02*
X2888D01*
X2878Y2683D01*
X2869Y2678D01*
X2861Y2670D01*
X2856Y2661D01*
X2853Y2650D01*
Y2640D01*
X2856Y2629D01*
X2861Y2620D01*
X2869Y2612D01*
X2878Y2607D01*
X2888Y2604D01*
X2899D01*
X2910Y2607D01*
X2919Y2612D01*
X2926Y2620D01*
X2932Y2629D01*
X2935Y2640D01*
Y2650D01*
X2932Y2661D01*
X2926Y2670D01*
X2919Y2678D01*
X2910Y2683D01*
X2899Y2686D01*
D02*
G37*
G36*
X2799D02*
X2788D01*
X2778Y2683D01*
X2769Y2678D01*
X2761Y2670D01*
X2756Y2661D01*
X2753Y2650D01*
Y2640D01*
X2756Y2629D01*
X2761Y2620D01*
X2769Y2612D01*
X2778Y2607D01*
X2788Y2604D01*
X2799D01*
X2810Y2607D01*
X2819Y2612D01*
X2826Y2620D01*
X2832Y2629D01*
X2835Y2640D01*
Y2650D01*
X2832Y2661D01*
X2826Y2670D01*
X2819Y2678D01*
X2810Y2683D01*
X2799Y2686D01*
D02*
G37*
G36*
X2699D02*
X2688D01*
X2678Y2683D01*
X2669Y2678D01*
X2661Y2670D01*
X2656Y2661D01*
X2653Y2650D01*
Y2640D01*
X2656Y2629D01*
X2661Y2620D01*
X2669Y2612D01*
X2678Y2607D01*
X2688Y2604D01*
X2699D01*
X2710Y2607D01*
X2719Y2612D01*
X2726Y2620D01*
X2732Y2629D01*
X2735Y2640D01*
Y2650D01*
X2732Y2661D01*
X2726Y2670D01*
X2719Y2678D01*
X2710Y2683D01*
X2699Y2686D01*
D02*
G37*
G36*
X2599D02*
X2588D01*
X2578Y2683D01*
X2569Y2678D01*
X2561Y2670D01*
X2556Y2661D01*
X2553Y2650D01*
Y2640D01*
X2556Y2629D01*
X2561Y2620D01*
X2569Y2612D01*
X2578Y2607D01*
X2588Y2604D01*
X2599D01*
X2610Y2607D01*
X2619Y2612D01*
X2626Y2620D01*
X2632Y2629D01*
X2635Y2640D01*
Y2650D01*
X2632Y2661D01*
X2626Y2670D01*
X2619Y2678D01*
X2610Y2683D01*
X2599Y2686D01*
D02*
G37*
G36*
X2499D02*
X2488D01*
X2478Y2683D01*
X2469Y2678D01*
X2461Y2670D01*
X2456Y2661D01*
X2453Y2650D01*
Y2640D01*
X2456Y2629D01*
X2461Y2620D01*
X2469Y2612D01*
X2478Y2607D01*
X2488Y2604D01*
X2499D01*
X2510Y2607D01*
X2519Y2612D01*
X2526Y2620D01*
X2532Y2629D01*
X2535Y2640D01*
Y2650D01*
X2532Y2661D01*
X2526Y2670D01*
X2519Y2678D01*
X2510Y2683D01*
X2499Y2686D01*
D02*
G37*
G36*
X2399D02*
X2388D01*
X2378Y2683D01*
X2369Y2678D01*
X2361Y2670D01*
X2356Y2661D01*
X2353Y2650D01*
Y2640D01*
X2356Y2629D01*
X2361Y2620D01*
X2369Y2612D01*
X2378Y2607D01*
X2388Y2604D01*
X2399D01*
X2410Y2607D01*
X2419Y2612D01*
X2426Y2620D01*
X2432Y2629D01*
X2435Y2640D01*
Y2650D01*
X2432Y2661D01*
X2426Y2670D01*
X2419Y2678D01*
X2410Y2683D01*
X2399Y2686D01*
D02*
G37*
G36*
X2299D02*
X2288D01*
X2278Y2683D01*
X2269Y2678D01*
X2261Y2670D01*
X2256Y2661D01*
X2253Y2650D01*
Y2640D01*
X2256Y2629D01*
X2261Y2620D01*
X2269Y2612D01*
X2278Y2607D01*
X2288Y2604D01*
X2299D01*
X2310Y2607D01*
X2319Y2612D01*
X2326Y2620D01*
X2332Y2629D01*
X2335Y2640D01*
Y2650D01*
X2332Y2661D01*
X2326Y2670D01*
X2319Y2678D01*
X2310Y2683D01*
X2299Y2686D01*
D02*
G37*
G36*
X4130Y2465D02*
X4050D01*
Y2385D01*
X4130D01*
Y2465D01*
D02*
G37*
G36*
X3995D02*
X3985D01*
X3975Y2462D01*
X3966Y2457D01*
X3958Y2449D01*
X3953Y2440D01*
X3950Y2430D01*
Y2420D01*
X3953Y2410D01*
X3958Y2401D01*
X3966Y2393D01*
X3975Y2388D01*
X3985Y2385D01*
X3995D01*
X4005Y2388D01*
X4014Y2393D01*
X4022Y2401D01*
X4027Y2410D01*
X4030Y2420D01*
Y2430D01*
X4027Y2440D01*
X4022Y2449D01*
X4014Y2457D01*
X4005Y2462D01*
X3995Y2465D01*
D02*
G37*
G36*
X3895D02*
X3885D01*
X3875Y2462D01*
X3866Y2457D01*
X3858Y2449D01*
X3853Y2440D01*
X3850Y2430D01*
Y2420D01*
X3853Y2410D01*
X3858Y2401D01*
X3866Y2393D01*
X3875Y2388D01*
X3885Y2385D01*
X3895D01*
X3905Y2388D01*
X3914Y2393D01*
X3922Y2401D01*
X3927Y2410D01*
X3930Y2420D01*
Y2430D01*
X3927Y2440D01*
X3922Y2449D01*
X3914Y2457D01*
X3905Y2462D01*
X3895Y2465D01*
D02*
G37*
G36*
X3795D02*
X3785D01*
X3775Y2462D01*
X3766Y2457D01*
X3758Y2449D01*
X3753Y2440D01*
X3750Y2430D01*
Y2420D01*
X3753Y2410D01*
X3758Y2401D01*
X3766Y2393D01*
X3775Y2388D01*
X3785Y2385D01*
X3795D01*
X3805Y2388D01*
X3814Y2393D01*
X3822Y2401D01*
X3827Y2410D01*
X3830Y2420D01*
Y2430D01*
X3827Y2440D01*
X3822Y2449D01*
X3814Y2457D01*
X3805Y2462D01*
X3795Y2465D01*
D02*
G37*
G36*
X3695D02*
X3685D01*
X3675Y2462D01*
X3666Y2457D01*
X3658Y2449D01*
X3653Y2440D01*
X3650Y2430D01*
Y2420D01*
X3653Y2410D01*
X3658Y2401D01*
X3666Y2393D01*
X3675Y2388D01*
X3685Y2385D01*
X3695D01*
X3705Y2388D01*
X3714Y2393D01*
X3722Y2401D01*
X3727Y2410D01*
X3730Y2420D01*
Y2430D01*
X3727Y2440D01*
X3722Y2449D01*
X3714Y2457D01*
X3705Y2462D01*
X3695Y2465D01*
D02*
G37*
G36*
X3595D02*
X3585D01*
X3575Y2462D01*
X3566Y2457D01*
X3558Y2449D01*
X3553Y2440D01*
X3550Y2430D01*
Y2420D01*
X3553Y2410D01*
X3558Y2401D01*
X3566Y2393D01*
X3575Y2388D01*
X3585Y2385D01*
X3595D01*
X3605Y2388D01*
X3614Y2393D01*
X3622Y2401D01*
X3627Y2410D01*
X3630Y2420D01*
Y2430D01*
X3627Y2440D01*
X3622Y2449D01*
X3614Y2457D01*
X3605Y2462D01*
X3595Y2465D01*
D02*
G37*
G36*
X3495D02*
X3485D01*
X3475Y2462D01*
X3466Y2457D01*
X3458Y2449D01*
X3453Y2440D01*
X3450Y2430D01*
Y2420D01*
X3453Y2410D01*
X3458Y2401D01*
X3466Y2393D01*
X3475Y2388D01*
X3485Y2385D01*
X3495D01*
X3505Y2388D01*
X3514Y2393D01*
X3522Y2401D01*
X3527Y2410D01*
X3530Y2420D01*
Y2430D01*
X3527Y2440D01*
X3522Y2449D01*
X3514Y2457D01*
X3505Y2462D01*
X3495Y2465D01*
D02*
G37*
G36*
X3395D02*
X3385D01*
X3375Y2462D01*
X3366Y2457D01*
X3358Y2449D01*
X3353Y2440D01*
X3350Y2430D01*
Y2420D01*
X3353Y2410D01*
X3358Y2401D01*
X3366Y2393D01*
X3375Y2388D01*
X3385Y2385D01*
X3395D01*
X3405Y2388D01*
X3414Y2393D01*
X3422Y2401D01*
X3427Y2410D01*
X3430Y2420D01*
Y2430D01*
X3427Y2440D01*
X3422Y2449D01*
X3414Y2457D01*
X3405Y2462D01*
X3395Y2465D01*
D02*
G37*
G36*
X3295D02*
X3285D01*
X3275Y2462D01*
X3266Y2457D01*
X3258Y2449D01*
X3253Y2440D01*
X3250Y2430D01*
Y2420D01*
X3253Y2410D01*
X3258Y2401D01*
X3266Y2393D01*
X3275Y2388D01*
X3285Y2385D01*
X3295D01*
X3305Y2388D01*
X3314Y2393D01*
X3322Y2401D01*
X3327Y2410D01*
X3330Y2420D01*
Y2430D01*
X3327Y2440D01*
X3322Y2449D01*
X3314Y2457D01*
X3305Y2462D01*
X3295Y2465D01*
D02*
G37*
G36*
X3195D02*
X3185D01*
X3175Y2462D01*
X3166Y2457D01*
X3158Y2449D01*
X3153Y2440D01*
X3150Y2430D01*
Y2420D01*
X3153Y2410D01*
X3158Y2401D01*
X3166Y2393D01*
X3175Y2388D01*
X3185Y2385D01*
X3195D01*
X3205Y2388D01*
X3214Y2393D01*
X3222Y2401D01*
X3227Y2410D01*
X3230Y2420D01*
Y2430D01*
X3227Y2440D01*
X3222Y2449D01*
X3214Y2457D01*
X3205Y2462D01*
X3195Y2465D01*
D02*
G37*
G36*
X3095D02*
X3085D01*
X3075Y2462D01*
X3066Y2457D01*
X3058Y2449D01*
X3053Y2440D01*
X3050Y2430D01*
Y2420D01*
X3053Y2410D01*
X3058Y2401D01*
X3066Y2393D01*
X3075Y2388D01*
X3085Y2385D01*
X3095D01*
X3105Y2388D01*
X3114Y2393D01*
X3122Y2401D01*
X3127Y2410D01*
X3130Y2420D01*
Y2430D01*
X3127Y2440D01*
X3122Y2449D01*
X3114Y2457D01*
X3105Y2462D01*
X3095Y2465D01*
D02*
G37*
G36*
X2995D02*
X2985D01*
X2975Y2462D01*
X2966Y2457D01*
X2958Y2449D01*
X2953Y2440D01*
X2950Y2430D01*
Y2420D01*
X2953Y2410D01*
X2958Y2401D01*
X2966Y2393D01*
X2975Y2388D01*
X2985Y2385D01*
X2995D01*
X3005Y2388D01*
X3014Y2393D01*
X3022Y2401D01*
X3027Y2410D01*
X3030Y2420D01*
Y2430D01*
X3027Y2440D01*
X3022Y2449D01*
X3014Y2457D01*
X3005Y2462D01*
X2995Y2465D01*
D02*
G37*
G36*
X2895D02*
X2885D01*
X2875Y2462D01*
X2866Y2457D01*
X2858Y2449D01*
X2853Y2440D01*
X2850Y2430D01*
Y2420D01*
X2853Y2410D01*
X2858Y2401D01*
X2866Y2393D01*
X2875Y2388D01*
X2885Y2385D01*
X2895D01*
X2905Y2388D01*
X2914Y2393D01*
X2922Y2401D01*
X2927Y2410D01*
X2930Y2420D01*
Y2430D01*
X2927Y2440D01*
X2922Y2449D01*
X2914Y2457D01*
X2905Y2462D01*
X2895Y2465D01*
D02*
G37*
G36*
X2795D02*
X2785D01*
X2775Y2462D01*
X2766Y2457D01*
X2758Y2449D01*
X2753Y2440D01*
X2750Y2430D01*
Y2420D01*
X2753Y2410D01*
X2758Y2401D01*
X2766Y2393D01*
X2775Y2388D01*
X2785Y2385D01*
X2795D01*
X2805Y2388D01*
X2814Y2393D01*
X2822Y2401D01*
X2827Y2410D01*
X2830Y2420D01*
Y2430D01*
X2827Y2440D01*
X2822Y2449D01*
X2814Y2457D01*
X2805Y2462D01*
X2795Y2465D01*
D02*
G37*
G36*
X2695D02*
X2685D01*
X2675Y2462D01*
X2666Y2457D01*
X2658Y2449D01*
X2653Y2440D01*
X2650Y2430D01*
Y2420D01*
X2653Y2410D01*
X2658Y2401D01*
X2666Y2393D01*
X2675Y2388D01*
X2685Y2385D01*
X2695D01*
X2705Y2388D01*
X2714Y2393D01*
X2722Y2401D01*
X2727Y2410D01*
X2730Y2420D01*
Y2430D01*
X2727Y2440D01*
X2722Y2449D01*
X2714Y2457D01*
X2705Y2462D01*
X2695Y2465D01*
D02*
G37*
G36*
X2595D02*
X2585D01*
X2575Y2462D01*
X2566Y2457D01*
X2558Y2449D01*
X2553Y2440D01*
X2550Y2430D01*
Y2420D01*
X2553Y2410D01*
X2558Y2401D01*
X2566Y2393D01*
X2575Y2388D01*
X2585Y2385D01*
X2595D01*
X2605Y2388D01*
X2614Y2393D01*
X2622Y2401D01*
X2627Y2410D01*
X2630Y2420D01*
Y2430D01*
X2627Y2440D01*
X2622Y2449D01*
X2614Y2457D01*
X2605Y2462D01*
X2595Y2465D01*
D02*
G37*
G36*
X2495D02*
X2485D01*
X2475Y2462D01*
X2466Y2457D01*
X2458Y2449D01*
X2453Y2440D01*
X2450Y2430D01*
Y2420D01*
X2453Y2410D01*
X2458Y2401D01*
X2466Y2393D01*
X2475Y2388D01*
X2485Y2385D01*
X2495D01*
X2505Y2388D01*
X2514Y2393D01*
X2522Y2401D01*
X2527Y2410D01*
X2530Y2420D01*
Y2430D01*
X2527Y2440D01*
X2522Y2449D01*
X2514Y2457D01*
X2505Y2462D01*
X2495Y2465D01*
D02*
G37*
G36*
X2395D02*
X2385D01*
X2375Y2462D01*
X2366Y2457D01*
X2358Y2449D01*
X2353Y2440D01*
X2350Y2430D01*
Y2420D01*
X2353Y2410D01*
X2358Y2401D01*
X2366Y2393D01*
X2375Y2388D01*
X2385Y2385D01*
X2395D01*
X2405Y2388D01*
X2414Y2393D01*
X2422Y2401D01*
X2427Y2410D01*
X2430Y2420D01*
Y2430D01*
X2427Y2440D01*
X2422Y2449D01*
X2414Y2457D01*
X2405Y2462D01*
X2395Y2465D01*
D02*
G37*
G36*
X2295D02*
X2285D01*
X2275Y2462D01*
X2266Y2457D01*
X2258Y2449D01*
X2253Y2440D01*
X2250Y2430D01*
Y2420D01*
X2253Y2410D01*
X2258Y2401D01*
X2266Y2393D01*
X2275Y2388D01*
X2285Y2385D01*
X2295D01*
X2305Y2388D01*
X2314Y2393D01*
X2322Y2401D01*
X2327Y2410D01*
X2330Y2420D01*
Y2430D01*
X2327Y2440D01*
X2322Y2449D01*
X2314Y2457D01*
X2305Y2462D01*
X2295Y2465D01*
D02*
G37*
G36*
X2530Y2115D02*
Y2085D01*
X2560D01*
X2558Y2094D01*
X2553Y2101D01*
X2546Y2108D01*
X2539Y2113D01*
X2530Y2115D01*
D02*
G37*
G36*
X2520D02*
X2511Y2113D01*
X2504Y2108D01*
X2497Y2101D01*
X2492Y2094D01*
X2490Y2085D01*
X2520D01*
Y2115D01*
D02*
G37*
G36*
X2560Y2075D02*
X2530D01*
Y2045D01*
X2539Y2047D01*
X2546Y2052D01*
X2553Y2059D01*
X2558Y2066D01*
X2560Y2075D01*
D02*
G37*
G36*
X2520D02*
X2490D01*
X2492Y2066D01*
X2497Y2059D01*
X2504Y2052D01*
X2511Y2047D01*
X2520Y2045D01*
Y2075D01*
D02*
G37*
G36*
X2880Y2020D02*
Y1990D01*
X2910D01*
X2908Y1999D01*
X2903Y2006D01*
X2896Y2013D01*
X2889Y2018D01*
X2880Y2020D01*
D02*
G37*
G36*
X2870D02*
X2861Y2018D01*
X2854Y2013D01*
X2847Y2006D01*
X2842Y1999D01*
X2840Y1990D01*
X2870D01*
Y2020D01*
D02*
G37*
G36*
X2441Y2030D02*
X2426D01*
Y1985D01*
X2490D01*
X2489Y1993D01*
X2484Y2005D01*
X2476Y2015D01*
X2466Y2023D01*
X2454Y2028D01*
X2441Y2030D01*
D02*
G37*
G36*
X2416D02*
X2402D01*
X2389Y2028D01*
X2377Y2023D01*
X2366Y2015D01*
X2358Y2005D01*
X2353Y1993D01*
X2352Y1985D01*
X2416D01*
Y2030D01*
D02*
G37*
G36*
X2910Y1980D02*
X2880D01*
Y1950D01*
X2889Y1952D01*
X2896Y1957D01*
X2903Y1964D01*
X2908Y1971D01*
X2910Y1980D01*
D02*
G37*
G36*
X2870D02*
X2840D01*
X2842Y1971D01*
X2847Y1964D01*
X2854Y1957D01*
X2861Y1952D01*
X2870Y1950D01*
Y1980D01*
D02*
G37*
G36*
X2018Y2029D02*
X1880D01*
Y1931D01*
X2018D01*
Y2029D01*
D02*
G37*
G36*
X2490Y1975D02*
X2426D01*
Y1930D01*
X2441D01*
X2454Y1932D01*
X2466Y1937D01*
X2476Y1945D01*
X2484Y1955D01*
X2489Y1967D01*
X2490Y1975D01*
D02*
G37*
G36*
X2416D02*
X2352D01*
X2353Y1967D01*
X2358Y1955D01*
X2366Y1945D01*
X2377Y1937D01*
X2389Y1932D01*
X2402Y1930D01*
X2416D01*
Y1975D01*
D02*
G37*
G36*
X3725Y1955D02*
Y1925D01*
X3755D01*
X3753Y1934D01*
X3748Y1941D01*
X3741Y1948D01*
X3733Y1953D01*
X3725Y1955D01*
D02*
G37*
G36*
X3715D02*
X3706Y1953D01*
X3698Y1948D01*
X3692Y1941D01*
X3687Y1934D01*
X3685Y1925D01*
X3715D01*
Y1955D01*
D02*
G37*
G36*
X3095Y1950D02*
Y1920D01*
X3125D01*
X3123Y1929D01*
X3118Y1936D01*
X3111Y1943D01*
X3104Y1948D01*
X3095Y1950D01*
D02*
G37*
G36*
X3085D02*
X3076Y1948D01*
X3069Y1943D01*
X3062Y1936D01*
X3057Y1929D01*
X3055Y1920D01*
X3085D01*
Y1950D01*
D02*
G37*
G36*
X2590Y1945D02*
Y1915D01*
X2620D01*
X2618Y1924D01*
X2613Y1931D01*
X2606Y1938D01*
X2599Y1943D01*
X2590Y1945D01*
D02*
G37*
G36*
X2580D02*
X2571Y1943D01*
X2564Y1938D01*
X2557Y1931D01*
X2552Y1924D01*
X2550Y1915D01*
X2580D01*
Y1945D01*
D02*
G37*
G36*
X3755Y1915D02*
X3725D01*
Y1885D01*
X3733Y1887D01*
X3741Y1892D01*
X3748Y1899D01*
X3753Y1906D01*
X3755Y1915D01*
D02*
G37*
G36*
X3715D02*
X3685D01*
X3687Y1906D01*
X3692Y1899D01*
X3698Y1892D01*
X3706Y1887D01*
X3715Y1885D01*
Y1915D01*
D02*
G37*
G36*
X3125Y1910D02*
X3095D01*
Y1880D01*
X3104Y1882D01*
X3111Y1887D01*
X3118Y1894D01*
X3123Y1901D01*
X3125Y1910D01*
D02*
G37*
G36*
X3085D02*
X3055D01*
X3057Y1901D01*
X3062Y1894D01*
X3069Y1887D01*
X3076Y1882D01*
X3085Y1880D01*
Y1910D01*
D02*
G37*
G36*
X2620Y1905D02*
X2590D01*
Y1875D01*
X2599Y1877D01*
X2606Y1882D01*
X2613Y1889D01*
X2618Y1896D01*
X2620Y1905D01*
D02*
G37*
G36*
X2580D02*
X2550D01*
X2552Y1896D01*
X2557Y1889D01*
X2564Y1882D01*
X2571Y1877D01*
X2580Y1875D01*
Y1905D01*
D02*
G37*
G36*
X4425Y1690D02*
Y1660D01*
X4455D01*
X4453Y1669D01*
X4448Y1676D01*
X4441Y1683D01*
X4434Y1688D01*
X4425Y1690D01*
D02*
G37*
G36*
X4415D02*
X4406Y1688D01*
X4399Y1683D01*
X4392Y1676D01*
X4387Y1669D01*
X4385Y1660D01*
X4415D01*
Y1690D01*
D02*
G37*
G36*
X4352Y1704D02*
X4288D01*
Y1660D01*
X4352D01*
Y1704D01*
D02*
G37*
G36*
X4278D02*
X4214D01*
Y1660D01*
X4278D01*
Y1704D01*
D02*
G37*
G36*
X4455Y1650D02*
X4425D01*
Y1620D01*
X4434Y1622D01*
X4441Y1627D01*
X4448Y1634D01*
X4453Y1641D01*
X4455Y1650D01*
D02*
G37*
G36*
X4415D02*
X4385D01*
X4387Y1641D01*
X4392Y1634D01*
X4399Y1627D01*
X4406Y1622D01*
X4415Y1620D01*
Y1650D01*
D02*
G37*
G36*
X4352D02*
X4288D01*
Y1606D01*
X4352D01*
Y1650D01*
D02*
G37*
G36*
X4278D02*
X4214D01*
Y1606D01*
X4278D01*
Y1650D01*
D02*
G37*
G36*
X3831Y1705D02*
X3791D01*
X3778Y1703D01*
X3766Y1698D01*
X3756Y1690D01*
X3748Y1680D01*
X3743Y1668D01*
X3741Y1655D01*
X3743Y1642D01*
X3748Y1630D01*
X3756Y1620D01*
X3766Y1612D01*
X3778Y1607D01*
X3791Y1605D01*
X3831D01*
X3843Y1607D01*
X3855Y1612D01*
X3866Y1620D01*
X3874Y1630D01*
X3879Y1642D01*
X3880Y1655D01*
X3879Y1668D01*
X3874Y1680D01*
X3866Y1690D01*
X3855Y1698D01*
X3843Y1703D01*
X3831Y1705D01*
D02*
G37*
%LPD*%
D15*
X2990Y4815D02*
X3272D01*
X3307Y4780D01*
X3310D01*
D58*
X2421Y1980D02*
D03*
X3811Y1655D02*
D03*
D59*
X1949Y1980D02*
D03*
X4283Y1655D02*
D03*
D60*
X4630Y4684D02*
D03*
X2393Y3930D02*
D03*
X4090Y2425D02*
D03*
D61*
X4730Y4684D02*
D03*
X1945Y4680D02*
D03*
X2493Y3930D02*
D03*
X2593D02*
D03*
X2693D02*
D03*
X2793D02*
D03*
X2893D02*
D03*
X2993D02*
D03*
X3093D02*
D03*
X3193D02*
D03*
X3293D02*
D03*
X3393D02*
D03*
X3493D02*
D03*
X3593D02*
D03*
X3693D02*
D03*
X3793D02*
D03*
X3990Y2425D02*
D03*
X3890D02*
D03*
X3790D02*
D03*
X3690D02*
D03*
X3590D02*
D03*
X3490D02*
D03*
X3390D02*
D03*
X3290D02*
D03*
X3190D02*
D03*
X3090D02*
D03*
X2990D02*
D03*
X2890D02*
D03*
X2790D02*
D03*
X2690D02*
D03*
X2590D02*
D03*
X2490D02*
D03*
X2390D02*
D03*
X2290D02*
D03*
D62*
X1945Y4580D02*
D03*
D63*
X1658Y4146D02*
D03*
D64*
X1835D02*
D03*
D65*
X2294Y2645D02*
D03*
X2394D02*
D03*
X2494D02*
D03*
X2594D02*
D03*
X2694D02*
D03*
X2794D02*
D03*
X2894D02*
D03*
X2994D02*
D03*
X3094D02*
D03*
X3194D02*
D03*
X3294D02*
D03*
X3394D02*
D03*
X3494D02*
D03*
X3594D02*
D03*
X3694D02*
D03*
X3794D02*
D03*
X3894D02*
D03*
X3994D02*
D03*
X4094D02*
D03*
X2394Y3645D02*
D03*
X2494D02*
D03*
X2594D02*
D03*
X2694D02*
D03*
X2794D02*
D03*
X2894D02*
D03*
X2994D02*
D03*
X3094D02*
D03*
X3194D02*
D03*
X3294D02*
D03*
X3394D02*
D03*
X3494D02*
D03*
X3594D02*
D03*
X3694D02*
D03*
X3794D02*
D03*
X3894D02*
D03*
X2294D02*
D03*
X3994D02*
D03*
D66*
X4094D02*
D03*
D67*
X1565Y4765D02*
D03*
Y1305D02*
D03*
X4895Y1310D02*
D03*
Y4765D02*
D03*
D68*
X3720Y1920D02*
D03*
X2225Y4320D02*
D03*
X2875Y1985D02*
D03*
X2585Y1910D02*
D03*
X3090Y1915D02*
D03*
X2525Y2080D02*
D03*
X4420Y1655D02*
D03*
X4755Y3280D02*
D03*
Y2745D02*
D03*
X4665Y4010D02*
D03*
X4240Y4160D02*
D03*
X2800Y4255D02*
D03*
X2475Y4320D02*
D03*
X1935Y4370D02*
D03*
X2855Y3770D02*
D03*
X2990Y4815D02*
D03*
X3310Y4780D02*
D03*
D69*
X1940Y4366D02*
X1944Y4370D01*
X1940Y4365D02*
Y4366D01*
X1935Y4370D02*
X1940Y4365D01*
M02*
