G04*
G04 #@! TF.GenerationSoftware,Altium Limited,Altium Designer,22.3.1 (43)*
G04*
G04 Layer_Color=16711935*
%FSLAX23Y23*%
%MOIN*%
G70*
G04*
G04 #@! TF.SameCoordinates,1274CE9F-09AF-47AB-B1D0-44CBEC0A274A*
G04*
G04*
G04 #@! TF.FilePolarity,Positive*
G04*
G01*
G75*
%ADD10C,0.008*%
%ADD11C,0.006*%
%ADD14C,0.005*%
%ADD70C,0.000*%
%ADD71C,0.011*%
%ADD72C,0.004*%
D10*
X3464Y4544D02*
G03*
X3464Y4544I-4J0D01*
G01*
X2541Y4726D02*
G03*
X2541Y4726I-4J0D01*
G01*
X2938Y1742D02*
G03*
X2938Y1742I-4J0D01*
G01*
X3548Y1729D02*
G03*
X3548Y1729I-4J0D01*
G01*
X2645Y1512D02*
G03*
X2645Y1512I-4J0D01*
G01*
X4417Y4726D02*
G03*
X4417Y4726I-4J0D01*
G01*
D11*
X3678Y4692D02*
X3920D01*
X4162D01*
Y4208D02*
Y4692D01*
X3678Y4208D02*
X4162D01*
X3678D02*
Y4692D01*
D14*
X3576Y4204D02*
Y4474D01*
X3344Y4204D02*
X3576D01*
X3344Y4474D02*
X3576D01*
X3344Y4204D02*
Y4474D01*
X2344Y4425D02*
Y4632D01*
X2397Y4685D01*
X2551D01*
X2604Y4632D01*
Y4425D02*
Y4632D01*
X2344Y4425D02*
X2604D01*
X1449Y3968D02*
X2032D01*
X1449D02*
Y4323D01*
X2032D01*
Y3968D02*
Y4323D01*
X2698Y1737D02*
Y1930D01*
X2852Y1737D02*
Y1930D01*
X2698D02*
X2852D01*
X2698Y1737D02*
X2852D01*
X3402Y1525D02*
X3532D01*
X3402D02*
Y1595D01*
X3532Y1525D02*
Y1595D01*
X3402D02*
X3532D01*
X2243Y3694D02*
X4385D01*
X2243Y2596D02*
Y3694D01*
Y2596D02*
X4385D01*
Y3694D01*
X3308Y1723D02*
X3462D01*
X3308Y1917D02*
X3462D01*
Y1723D02*
Y1917D01*
X3308Y1723D02*
Y1917D01*
X2340Y1445D02*
Y1705D01*
Y1445D02*
X2547D01*
X2600Y1498D01*
Y1652D01*
X2547Y1705D02*
X2600Y1652D01*
X2340Y1705D02*
X2547D01*
X4281Y4170D02*
X4411D01*
X4281D02*
Y4240D01*
X4411Y4170D02*
Y4240D01*
X4281D02*
X4411D01*
X4220Y4425D02*
Y4632D01*
X4273Y4685D01*
X4427D01*
X4480Y4632D01*
Y4425D02*
Y4632D01*
X4220Y4425D02*
X4480D01*
D70*
X3920Y4686D02*
G03*
X3920Y4692I0J3D01*
G01*
D02*
G03*
X3920Y4686I0J-3D01*
G01*
D71*
X4105Y3720D02*
G03*
X4105Y3720I-6J0D01*
G01*
D72*
X4657Y4336D02*
Y4374D01*
X4590Y4336D02*
Y4374D01*
Y4336D02*
X4657D01*
X4590Y4374D02*
X4657D01*
X3428Y4690D02*
Y4728D01*
X3361Y4690D02*
Y4728D01*
Y4690D02*
X3428D01*
X3361Y4728D02*
X3428D01*
X2674Y4658D02*
X2711D01*
X2674Y4724D02*
X2711D01*
X2674Y4658D02*
Y4724D01*
X2711Y4658D02*
Y4724D01*
X2143Y4723D02*
X2209D01*
X2143Y4685D02*
X2209D01*
X2143D02*
Y4723D01*
X2209Y4685D02*
Y4723D01*
X4610Y2996D02*
X4677D01*
X4610Y3034D02*
X4677D01*
Y2996D02*
Y3034D01*
X4610Y2996D02*
Y3034D01*
X3329Y2056D02*
Y2094D01*
X3262Y2056D02*
Y2094D01*
Y2056D02*
X3329D01*
X3262Y2094D02*
X3329D01*
X3420Y2014D02*
X3545D01*
X3420Y1976D02*
X3545D01*
X3420D02*
Y2014D01*
X3545Y1976D02*
Y2014D01*
X3683Y1426D02*
Y1464D01*
X3616Y1426D02*
Y1464D01*
Y1426D02*
X3683D01*
X3616Y1464D02*
X3683D01*
X3303Y1541D02*
X3370D01*
X3303Y1579D02*
X3370D01*
Y1541D02*
Y1579D01*
X3303Y1541D02*
Y1579D01*
X3146Y1667D02*
Y1733D01*
X3184Y1667D02*
Y1733D01*
X3146Y1667D02*
X3184D01*
X3146Y1733D02*
X3184D01*
X3146Y1837D02*
Y1903D01*
X3184Y1837D02*
Y1903D01*
X3146Y1837D02*
X3184D01*
X3146Y1903D02*
X3184D01*
X2942Y2119D02*
X3008D01*
X2942Y2081D02*
X3008D01*
X2942D02*
Y2119D01*
X3008Y2081D02*
Y2119D01*
X3357Y2226D02*
X3424D01*
X3357Y2264D02*
X3424D01*
Y2226D02*
Y2264D01*
X3357Y2226D02*
Y2264D01*
X3601Y1769D02*
X3639D01*
X3601Y1702D02*
X3639D01*
Y1769D01*
X3601Y1702D02*
Y1769D01*
X2991Y1720D02*
Y1787D01*
X3029Y1720D02*
Y1787D01*
X2991Y1720D02*
X3029D01*
X2991Y1787D02*
X3029D01*
X3601Y1908D02*
X3639D01*
X3601Y1842D02*
X3639D01*
Y1908D01*
X3601Y1842D02*
Y1908D01*
X2991Y1923D02*
X3029D01*
X2991Y1857D02*
X3029D01*
Y1923D01*
X2991Y1857D02*
Y1923D01*
X2762Y1636D02*
Y1674D01*
X2829Y1636D02*
Y1674D01*
X2762D02*
X2829D01*
X2762Y1636D02*
X2829D01*
X4610Y3546D02*
Y3584D01*
X4677Y3546D02*
Y3584D01*
X4610D02*
X4677D01*
X4610Y3546D02*
X4677D01*
X2846Y4166D02*
Y4546D01*
X3265Y4166D02*
Y4546D01*
X2846Y4166D02*
X3265D01*
X2846Y4546D02*
X3265D01*
M02*
